<svg xmlns="http://www.w3.org/2000/svg" xmlns:xlink="http://www.w3.org/1999/xlink" viewBox="0 0 296.07 307.54"><defs><style>.cls-1{fill:url(#radial-gradient);}.cls-2{fill:#bcdff5;}.cls-3,.cls-6{fill:#231f20;}.cls-4{fill:#fff;stroke:#fff;}.cls-4,.cls-6,.cls-7{stroke-miterlimit:10;}.cls-5{fill:#2e76bb;}.cls-6,.cls-7{stroke:#231f20;}.cls-7{fill:#9cd9e5;fill-opacity:0.43;stroke-width:8px;}.cls-8{opacity:0.75;}.cls-9{fill:#bde4ed;}.cls-10{fill:#96ceea;}</style><radialGradient id="radial-gradient" cx="28.81" cy="-6.26" r="136.45" gradientTransform="matrix(-1.04, 0, 0, 0.95, 179.55, 158.07)" gradientUnits="userSpaceOnUse"><stop offset="0" stop-color="#a7dbda"/><stop offset="0.78" stop-color="#bcdff5"/></radialGradient></defs><g id="Layer_2" data-name="Layer 2"><g id="Layer_1-2" data-name="Layer 1"><path class="cls-1" d="M12.7,142.61c0,77.62,53.76,143.31,139.23,143.31s134.38-65.69,134.38-143.31S237.41,17.75,151.93,17.75,12.7,65,12.7,142.61Z"/><path class="cls-2" d="M83.53,251.59,71.39,276.07c-1.34,2.71-2.71,5.48-3,8.48-.58,5.66,2.8,11.17,7.38,14.53S86,304,91.55,305.15c7.51,1.56,16.23,2.18,21.92-2.95,2.92-2.65,4.53-6.42,5.88-10.12A131.14,131.14,0,0,0,125.1,271Z"/><path class="cls-2" d="M82.45,251c-4.38,8.84-9,17.6-13.14,26.53-1.77,3.82-2.85,7.78-1.79,12A19.15,19.15,0,0,0,73.65,299c6.15,5.28,15,7.28,22.83,8.22,7.52.9,15.51-.27,20.21-6.81,2.81-3.92,4.27-8.87,5.7-13.41a132.59,132.59,0,0,0,3.92-15.71,1.29,1.29,0,0,0-.58-1.41l-14-6.53L89.36,252.93l-5.2-2.42c-1.45-.68-2.72,1.47-1.26,2.15l14,6.53,22.37,10.43,5.19,2.42-.57-1.42q-1.2,6.45-3,12.75a85.65,85.65,0,0,1-4.14,11.88c-1.55,3.38-3.7,6.34-7.09,8A20.5,20.5,0,0,1,99.56,305a56.64,56.64,0,0,1-10.81-1.73,36.86,36.86,0,0,1-11-4.29,18.3,18.3,0,0,1-7.19-8.16c-1.58-3.76-1.12-7.55.5-11.23,2-4.52,4.36-8.9,6.56-13.33l7-14C85.32,250.78,83.17,249.51,82.45,251Z"/><path class="cls-2" d="M171.79,256.43l-5.27,26.83c-.58,3-1.16,6-.67,9,.92,5.61,5.63,10,10.94,12.07s11.17,2.05,16.84,1.7c7.65-.48,16.24-2.17,20.37-8.63,2.12-3.32,2.68-7.38,3-11.31a131.15,131.15,0,0,0,0-21.89Z"/><path class="cls-2" d="M170.58,256.1,167.66,271c-.95,4.83-2,9.67-2.82,14.53-.69,4.18-.56,8.3,1.68,12a19.18,19.18,0,0,0,8,7.12c7.43,3.65,16.69,3.24,24.67,2,7.11-1.09,14.29-4.13,17.21-11.18,1.86-4.51,2-9.71,2.21-14.52a134.42,134.42,0,0,0-.34-16.79,1.28,1.28,0,0,0-.92-1.2l-15.23-2.61-24.32-4.16-5.65-1c-1.58-.27-2.25,2.14-.67,2.41l15.23,2.61L211,264.41l5.65,1-.92-1.21a134.73,134.73,0,0,1,.44,13.63,77.08,77.08,0,0,1-1,12.78,15.11,15.11,0,0,1-5.05,9.24,21.32,21.32,0,0,1-9,3.93,55.74,55.74,0,0,1-10.47,1.14,36.57,36.57,0,0,1-12.32-1.35,18.21,18.21,0,0,1-8.67-5.77,13.46,13.46,0,0,1-2.62-10.58c.64-5.05,1.89-10.07,2.87-15.06l3-15.36C173.3,255.2,170.89,254.52,170.58,256.1Z"/><path class="cls-3" d="M172.08,4.86a88.54,88.54,0,0,0-6.33,11.7c-1.15,2.36-2.25,4.75-3.27,7.17a25.11,25.11,0,0,0-1.75,5.09c-.28,1.57,2.13,2.25,2.41.67a23.92,23.92,0,0,1,1.66-4.87c1-2.39,2.1-4.73,3.24-7.06a86.35,86.35,0,0,1,6.2-11.43c.91-1.33-1.25-2.58-2.16-1.27Z"/><path class="cls-3" d="M157.61,1.19c-1,9.23-1.79,18.47-2.78,27.69-.17,1.6,2.33,1.59,2.5,0,1-9.22,1.79-18.46,2.78-27.69.17-1.59-2.33-1.58-2.5,0Z"/><path class="cls-3" d="M150.92,28.87a14.66,14.66,0,0,0-.14-5.75A61.08,61.08,0,0,0,149,15.55a78.16,78.16,0,0,0-2.54-7.47,22.48,22.48,0,0,0-2.59-5.19c-1-1.27-3.13,0-2.16,1.26a20.69,20.69,0,0,1,2.34,4.59c.94,2.35,1.74,4.75,2.45,7.18a66.56,66.56,0,0,1,1.76,7.35,13.15,13.15,0,0,1,.22,4.94,1.25,1.25,0,0,0,2.41.66Z"/><path class="cls-2" d="M22.13,175.73,6.69,198.29a37.85,37.85,0,0,0-4.46,7.77c-1.92,5.15-.87,10,1.65,12.95s6.29,4.16,10.11,5c5.16,1.18,11.46,1.49,17-3.34,2.86-2.48,5-6,7-9.34a193.68,193.68,0,0,0,9.81-19.32Z"/><path class="cls-2" d="M21.05,175.1,6.17,196.84C4,200.09,1.56,203.4.54,207.26a14.77,14.77,0,0,0,.78,10.1c2.86,6,10.61,8.07,16.72,8.59a19,19,0,0,0,9.51-1.52,21.36,21.36,0,0,0,8.26-7.24,99.45,99.45,0,0,0,7-11.82q3.3-6.23,6.13-12.69a1.29,1.29,0,0,0-.45-1.71L26,176.7l-3.22-2c-1.36-.86-2.62,1.3-1.26,2.16L44,191.09l3.22,2-.45-1.71a186.7,186.7,0,0,1-10.48,20.45,30.53,30.53,0,0,1-6.51,8.25,15.14,15.14,0,0,1-8.88,3.39,26.86,26.86,0,0,1-8.54-1.16c-3-.84-6.15-2.13-8-4.76a11.44,11.44,0,0,1-1.55-9c.78-3.6,2.93-6.67,5-9.66q7.71-11.28,15.44-22.55C24.12,175,22,173.78,21.05,175.1Z"/><path class="cls-2" d="M201.74,30.18l.41-11.39a15.69,15.69,0,0,1,.42-3.71,5.41,5.41,0,0,1,3.76-3.94A7.61,7.61,0,0,1,211,12c2,.88,4.22,2.33,4.89,5.33a15.28,15.28,0,0,1,0,4.87,78.85,78.85,0,0,1-1.49,8.91Z"/><path class="cls-2" d="M203,30.18c.15-4.14.22-8.29.45-12.42a6.42,6.42,0,0,1,1.64-4.55c1.24-1.16,2.81-1,4.33-.53,3,1,5.27,3,5.41,6.31a31.89,31.89,0,0,1-.51,5.85c-.29,2-.67,3.95-1.1,5.9l1.2-.92-12.67-.89c-1.6-.11-1.6,2.39,0,2.5l12.67.89a1.26,1.26,0,0,0,1.21-.91,67.17,67.17,0,0,0,1.68-11c.16-3.12-.68-6.09-3.21-8.06-2.25-1.75-5.82-3.27-8.65-2.23s-4.2,4-4.45,7c-.38,4.35-.34,8.76-.5,13.11C200.44,31.79,202.94,31.79,203,30.18Z"/><path class="cls-2" d="M108.07,32.13l-.4-11.39a15.13,15.13,0,0,0-.43-3.71,5.4,5.4,0,0,0-3.76-3.94,7.62,7.62,0,0,0-4.64.82A7.6,7.6,0,0,0,94,19.24a15,15,0,0,0,0,4.87A79.21,79.21,0,0,0,95.4,33Z"/><path class="cls-2" d="M109.32,32.13c-.14-3.91-.26-7.82-.41-11.73-.12-3-.75-6.25-3.58-7.9s-6.25-.4-8.75,1.18a8.69,8.69,0,0,0-4.08,7.26A34.27,34.27,0,0,0,93,27.08c.3,2.1.69,4.2,1.16,6.27a1.24,1.24,0,0,0,1.2.92l12.67-.89c1.6-.11,1.61-2.61,0-2.5l-12.67.89,1.21.92q-.66-2.92-1.1-5.9A31,31,0,0,1,95,20.94c.13-3.34,2.41-5.29,5.4-6.31,1.52-.51,3.1-.63,4.33.53a6.43,6.43,0,0,1,1.65,4.55c.23,4.13.3,8.28.44,12.42C106.88,33.73,109.38,33.74,109.32,32.13Z"/><circle class="cls-4" cx="234.57" cy="107.32" r="47.11"/><circle class="cls-5" cx="239.62" cy="110.03" r="30.68"/><circle class="cls-6" cx="239.62" cy="110.57" r="23.98"/><path class="cls-3" d="M177.44,116.42a174.49,174.49,0,0,0-20.43-13c-2.83-1.53-5.35,2.79-2.52,4.32a173.89,173.89,0,0,1,20.42,13,2.52,2.52,0,0,0,3.42-.9,2.55,2.55,0,0,0-.89-3.42Z"/><rect class="cls-7" x="176.39" y="53.49" width="112.88" height="112.88" rx="16.66" transform="translate(-7.43 17.36) rotate(-4.2)"/><g class="cls-8"><path class="cls-9" d="M220.88,118.25a304.9,304.9,0,0,1,23.85-29.78c2.16-2.38-1.36-5.92-3.53-3.54a316,316,0,0,0-24.64,30.8,2.5,2.5,0,0,0,4.32,2.52Z"/></g><g class="cls-8"><path class="cls-9" d="M234.66,129.48c1.44-2.38,2.93-4.73,4.52-7,.4-.57.81-1.14,1.22-1.7.19-.27.39-.53.58-.79l.3-.38c-.25.31.08-.11.12-.16.84-1.07,1.71-2.1,2.64-3.09a2.5,2.5,0,0,0-3.54-3.54A85.94,85.94,0,0,0,230.34,127a2.53,2.53,0,0,0,.9,3.42,2.56,2.56,0,0,0,3.42-.9Z"/></g><path class="cls-10" d="M138.81,231.19a10.46,10.46,0,0,1,2.49,3.53c.39,1.28-1,2.57-1.71,3.5a30.65,30.65,0,0,0-4.67,9.76c-2.06,6.92-1.32,14.49,3,20.39.94,1.28,3.11,0,2.16-1.27-4.67-6.34-4.64-14.26-1.75-21.36A31.84,31.84,0,0,1,141,240.5a32.9,32.9,0,0,0,2.46-3.54c1.36-2.86-1.1-5.53-2.89-7.54-1.08-1.2-2.84.58-1.77,1.77Z"/><path class="cls-3" d="M229.91,213.38c2.58,1.31,5.58,1.73,8.36,2.42,1.42.35,2.79.82,4.18,1.26a32.47,32.47,0,0,0,5.09.8c1.83.28,3.65.54,5.49.68a21.33,21.33,0,0,0,5.11.1,24.75,24.75,0,0,0,6.6-2.58,30.08,30.08,0,0,0,6.52-3.95,2.52,2.52,0,0,0,0-3.53,2.55,2.55,0,0,0-3.54,0c-.48.42.38-.22-.05,0-.22.13-.42.29-.63.42-.54.35-1.09.68-1.65,1-1.34.77-2.72,1.49-4.12,2.15a20,20,0,0,1-3.5,1.41c-.24.06-.49.1-.73.18s.5.12,0,0a19.25,19.25,0,0,0-3.57-.19c-2.19-.15-4.33-.53-6.51-.79a30,30,0,0,1-5-1.18c-1.79-.55-3.61-.94-5.43-1.37-.85-.2-1.7-.41-2.55-.65l-1-.34-.46-.17q.39.17,0,0c-2.86-1.45-5.4,2.86-2.52,4.31Z"/><path class="cls-10" d="M144.53,237q.54-.47,1.08-.9l.27-.21s.19-.15,0,0,0,0,.05,0l.58-.44c.76-.55,1.54-1.08,2.34-1.57a1.25,1.25,0,1,0-1.26-2.16,37.88,37.88,0,0,0-4.87,3.58,1.25,1.25,0,1,0,1.77,1.77Z"/></g></g></svg>