<svg xmlns="http://www.w3.org/2000/svg" xmlns:xlink="http://www.w3.org/1999/xlink" viewBox="0 0 538.8 405.68"><defs><style>.cls-1{fill:url(#radial-gradient);}.cls-2{fill:#bbdef4;}.cls-3,.cls-8{fill:#221f1f;}.cls-4{fill:#bc202e;}.cls-5{fill:#ab1f29;}.cls-6{fill:#fff;stroke:#fff;}.cls-10,.cls-15,.cls-6,.cls-8{stroke-miterlimit:10;}.cls-7{fill:#2f76b9;}.cls-10,.cls-8{stroke:#221f1f;}.cls-9{fill:#00729e;}.cls-10{fill:#9cd9e4;fill-opacity:0.43;stroke-width:9px;}.cls-11{opacity:0.75;}.cls-12{fill:#bde3ec;}.cls-13,.cls-15{fill:#1b191d;}.cls-14{fill:#150e1d;}.cls-15{stroke:#150e1d;}.cls-16{fill:#faaf40;}.cls-17{fill:#a47c52;}.cls-18{fill:#020202;}.cls-19{fill:#bd946b;}</style><radialGradient id="radial-gradient" cx="329.11" cy="-1636.5" r="155.34" gradientTransform="matrix(1.04, -0.02, 0.01, 0.95, -121.1, 1774.99)" gradientUnits="userSpaceOnUse"><stop offset="0" stop-color="#a7dbda"/><stop offset="0.78" stop-color="#bbdef4"/></radialGradient></defs><g id="Layer_2" data-name="Layer 2"><g id="Layer_1-2" data-name="Layer 1"><path class="cls-1" d="M354.56,206.85c1.32,88.35-58.76,164-156,165.5S44.43,299.85,43.11,211.5,96.66,68.54,194,67.09,353.24,118.5,354.56,206.85Z"/><path class="cls-2" d="M112.33,342.5,98.92,370.58c-1.48,3.1-3,6.29-3.28,9.71-.57,6.45,3.37,12.66,8.64,16.41s11.73,5.43,18.09,6.64c8.57,1.65,18.52,2.21,24.9-3.73,3.28-3.06,5-7.38,6.52-11.62A150,150,0,0,0,160,363.85Z"/><path class="cls-2" d="M111.25,341.87C106.43,352,101.39,362,96.8,372.19c-2,4.31-3.14,8.77-1.93,13.46a21.45,21.45,0,0,0,6.87,10.64,34.14,34.14,0,0,0,12.71,6.47A75.46,75.46,0,0,0,128,405.45c8.47.88,17.51-.53,22.7-8,3.09-4.43,4.66-10,6.2-15.09a151.75,151.75,0,0,0,4.26-18.21,1.27,1.27,0,0,0-.57-1.41l-16.1-7.21-25.66-11.5L113,341.43c-1.45-.66-2.73,1.5-1.26,2.15l16.1,7.22,25.66,11.49,5.89,2.64-.58-1.41a151.18,151.18,0,0,1-3.33,15A95.26,95.26,0,0,1,150.93,392c-1.76,3.92-4.27,7.31-8.19,9.25a24.06,24.06,0,0,1-11.46,2,65.6,65.6,0,0,1-12.39-1.84,41.07,41.07,0,0,1-12.72-4.88,20.79,20.79,0,0,1-8.08-9.11c-1.85-4.26-1.37-8.54.36-12.75,2.17-5.24,4.86-10.3,7.3-15.42l7.66-16C114.1,341.69,112,340.42,111.25,341.87Z"/><path class="cls-2" d="M212.87,346.53l-5.54,30.62c-.61,3.37-1.22,6.84-.61,10.22,1.15,6.37,6.58,11.33,12.66,13.56s12.75,2.14,19.2,1.64c8.7-.67,18.44-2.75,23-10.16,2.37-3.82,2.93-8.45,3.23-12.93a149.07,149.07,0,0,0-.38-24.91Z"/><path class="cls-2" d="M211.67,346.19c-2,11.05-4.25,22.08-6,33.17-.75,4.76-.66,9.45,1.87,13.68a21.54,21.54,0,0,0,9.16,8.11,34.09,34.09,0,0,0,14.16,3,74.85,74.85,0,0,0,13.94-1c8-1.35,16.1-4.9,19.31-12.94,2-5.14,2.09-11.06,2.25-16.51a151.44,151.44,0,0,0-.67-19.05,1.29,1.29,0,0,0-.92-1.21l-17.43-2.72-27.78-4.33-6.38-1c-1.57-.25-2.25,2.16-.66,2.41L230,350.45l27.78,4.33,6.37,1-.91-1.2a153.78,153.78,0,0,1,.73,15.62,86.36,86.36,0,0,1-.94,14.64,17.28,17.28,0,0,1-5.65,10.58,24.39,24.39,0,0,1-10.17,4.64,63.61,63.61,0,0,1-12,1.48A41.13,41.13,0,0,1,221,400.15a20.79,20.79,0,0,1-10-6.55c-2.84-3.49-3.6-7.65-3.1-12,.65-5.76,2-11.5,3-17.21l3.17-17.49C214.36,345.28,212,344.61,211.67,346.19Z"/><path d="M184.37,299c3.29,4.64,9.17,10.2,14.6,10.83,6.91.8,17.83-5.52,17.83-5.52-1.61,5.72-1.8,13.06-4.9,18.41a18.94,18.94,0,0,1-6.8,7.14,17.44,17.44,0,0,1-11.75,2.3c-5.81-.92-10.07-6.74-11.29-12.95S184.37,299,184.37,299Z"/><path class="cls-3" d="M182.21,300.27a37.1,37.1,0,0,0,6.89,7.43c2.58,2.06,5.55,4,8.88,4.5,5.51.89,11.23-1.42,16.14-3.71,1.33-.62,2.66-1.27,3.94-2l-3.68-2.82c-1.57,5.73-1.55,12.17-4.44,17.47-2.56,4.68-7,8.27-12.49,8.69a10.92,10.92,0,0,1-7.16-1.53,13.58,13.58,0,0,1-4.61-5.82,17.7,17.7,0,0,1-1.14-3.55c0-.19-.08-.39-.11-.58-.14-.73,0,.52,0-.26,0-.51-.08-1-.09-1.54a44.25,44.25,0,0,1,.46-6.51,96.19,96.19,0,0,1,2-10.36c.79-3.12-4-4.45-4.82-1.32a97.64,97.64,0,0,0-2,9.89c-.82,5.53-1.2,10.83,1.06,16.09,2.56,5.95,7.65,10.3,14.28,10.53a20.49,20.49,0,0,0,17.13-8.43c4.71-6.33,4.72-14.13,6.73-21.44a2.54,2.54,0,0,0-3.68-2.83,40.73,40.73,0,0,1-12.62,5,11.13,11.13,0,0,1-8.36-1.65,29,29,0,0,1-8-7.74,2.57,2.57,0,0,0-3.42-.9A2.51,2.51,0,0,0,182.21,300.27Z"/><path class="cls-4" d="M196.72,314.69c0-.88-.07-.7-.63-1.44a12.42,12.42,0,0,0-1.61-1.43,10.32,10.32,0,0,0-6.08-1.16,7.37,7.37,0,0,0-2.56,1.26,5.28,5.28,0,0,0-1.81,2.36,7.64,7.64,0,0,0-.42,3.15,11.82,11.82,0,0,0,1.1,4.49,19.21,19.21,0,0,0,1.72,2.81,11.57,11.57,0,0,0,2.3,2.72A9.69,9.69,0,0,0,192,329a29.36,29.36,0,0,0,8.74,1.18,6.16,6.16,0,0,0,2.3-.35,6.28,6.28,0,0,0,2.11-1.62,26,26,0,0,0,3-3.88,7.52,7.52,0,0,0,1-3.88,20,20,0,0,0-1.56-4.58,8.77,8.77,0,0,0-2.83-2.32c-2.09-1.17-5.11-1.44-6.87-.28C196.68,314.09,196.72,314.69,196.72,314.69Z"/><path class="cls-5" d="M197,314.69c-.08-1.61-1.79-2.86-3.17-3.46-2.21-1-5-1.36-7.14-.13-2.56,1.45-3.5,3.89-3.27,6.75a15.62,15.62,0,0,0,3.75,8.3c2,2.5,5,3.27,8,3.8a29.73,29.73,0,0,0,5.16.46,6.14,6.14,0,0,0,3.88-1,15.59,15.59,0,0,0,2.94-3.18,11.5,11.5,0,0,0,2.07-3.77c.59-2.12-.15-4.17-1-6.13-1.05-2.37-4.08-3.83-6.55-4.07a6,6,0,0,0-3.8.74c-.53.34-1.35.94-1.36,1.66,0,.32.49.32.5,0,0-.75,1.35-1.42,1.92-1.63a6.7,6.7,0,0,1,3.79-.09c1.94.46,4.24,1.75,5.07,3.65.73,1.65,1.47,3.56,1.06,5.37-.54,2.41-2.36,4.57-4.06,6.29-2.06,2.07-5,1.75-7.69,1.45s-5.7-.77-7.87-2.26c-1.91-1.3-3.52-3.94-4.42-6-1.06-2.48-1.55-6,.2-8.31s4.3-2.61,6.83-2c1.61.36,4.57,1.59,4.67,3.6C196.48,315,197,315,197,314.69Z"/><path class="cls-5" d="M196.47,314.69c0,1.5.07,3,.06,4.52a10.55,10.55,0,0,1-.58,4.1c-.83,2-1.65,4-2.59,5.91-.13.28.3.54.44.25,1-2,1.82-4,2.65-6.08a10.44,10.44,0,0,0,.58-4c0-1.58,0-3.16-.06-4.74,0-.32-.51-.32-.5,0Z"/><path class="cls-3" d="M168.5,54.13a99.18,99.18,0,0,1,7.26,12.92c1.32,2.6,2.59,5.22,3.77,7.89a27,27,0,0,1,2,5.63c.3,1.58,2.71.91,2.41-.66a28.3,28.3,0,0,0-2.07-5.76c-1.18-2.74-2.49-5.42-3.83-8.09a100.26,100.26,0,0,0-7.4-13.19c-.92-1.3-3.09,0-2.16,1.26Z"/><path class="cls-3" d="M184.53,48.36c1.07,8.71,2,17.43,3,26.14.2,1.78.4,3.56.62,5.33.19,1.58,2.7,1.6,2.5,0-1.07-8.7-2-17.43-3-26.14-.2-1.77-.41-3.55-.63-5.33-.19-1.57-2.69-1.59-2.5,0Z"/><path class="cls-3" d="M197.87,79c-.48-1.75-.12-4,.16-5.8a73.52,73.52,0,0,1,1.86-8.29c.75-2.74,1.62-5.46,2.63-8.11a22.94,22.94,0,0,1,2.64-5.43c1-1.3-1.22-2.55-2.16-1.26a25,25,0,0,0-2.79,5.77,84.89,84.89,0,0,0-2.81,8.66,70.94,70.94,0,0,0-1.89,8.77,16,16,0,0,0,0,6.36,1.25,1.25,0,0,0,2.41-.67Z"/><path class="cls-2" d="M51.24,210.38,20.4,206.27a42.81,42.81,0,0,0-10.19-.54c-6.21.69-6.3.59-8,4.64s-1,8.52.08,12.86c1.44,5.84,4.36,12.41,12.12,15.58a30.58,30.58,0,0,0,11.2,2.28c8.27.48,14.09,4.25,22.22,3.8Z"/><path class="cls-2" d="M51.24,209.13l-30.35-4c-2.33-.31-4.67-.64-7-.72a37.85,37.85,0,0,0-6.29.41c-2.2.28-4.22.68-5.41,2.74-3.76,6.54-2.07,15,.83,21.6,3.1,7,9.44,11.3,16.9,12.61,2.35.42,4.72.47,7.08.71a46.57,46.57,0,0,1,7,1.42c4.57,1.23,9.09,2.5,13.88,2.28a1.28,1.28,0,0,0,1.25-1.25l3-30.23.41-4.28c.16-1.6-2.34-1.59-2.5,0l-3,30.23-.42,4.28,1.25-1.25a36.8,36.8,0,0,1-11.49-1.72,58.83,58.83,0,0,0-11.63-2.14c-7.2-.49-14.37-2.87-18.27-9.36a28.91,28.91,0,0,1-3.21-8.65c-.93-4.09-1.17-8.07.56-12A4.69,4.69,0,0,1,5,208a5.79,5.79,0,0,1,2.65-.71,45.88,45.88,0,0,1,12.33.18l31.3,4.17C52.83,211.84,52.82,209.34,51.24,209.13Z"/><path class="cls-2" d="M332.75,216.65,360.7,203a43.61,43.61,0,0,1,9.5-3.74c6.11-1.31,11.45.68,14.31,4s3.64,7.77,4,12.22c.48,6-.21,13.16-6.56,18.63-3.27,2.81-7.54,4.7-11.69,6.36a217.56,217.56,0,0,1-23.37,7.87Z"/><path class="cls-2" d="M333.38,217.73l24.85-12.15c6.92-3.38,15.22-8.16,22.78-3.65,3.17,1.9,4.81,5.2,5.58,8.71a34.33,34.33,0,0,1,.69,10.16,18.46,18.46,0,0,1-3.16,9.07c-2.29,3.3-5.73,5.5-9.29,7.24a127.8,127.8,0,0,1-13.78,5.47q-7.17,2.52-14.5,4.53l1.42.58L335.58,220,333.83,216c-.65-1.46-2.81-.19-2.16,1.26L344.05,245l1.76,3.93a1.24,1.24,0,0,0,1.41.57A188,188,0,0,0,374.51,240c3.89-1.75,7.72-3.95,10.51-7.24a20.17,20.17,0,0,0,4.49-9.8,35.13,35.13,0,0,0-.05-10.34c-.53-3.94-1.72-8-4.6-10.85a15.26,15.26,0,0,0-9.65-4.15c-4.52-.34-8.79,1.27-12.81,3.15-10.16,4.77-20.19,9.86-30.28,14.79C330.67,216.28,331.94,218.44,333.38,217.73Z"/><circle class="cls-6" cx="131.44" cy="196.6" r="53.62"/><circle class="cls-7" cx="131.51" cy="201.51" r="34.92"/><circle class="cls-8" cx="131.52" cy="202.14" r="27.29"/><circle class="cls-6" cx="268.09" cy="198.05" r="53.62"/><circle class="cls-7" cx="268.17" cy="202.97" r="34.92"/><circle class="cls-8" cx="268.18" cy="203.59" r="27.29"/><path class="cls-2" d="M137.55,87.78l-.65-13a18.34,18.34,0,0,0-.55-4.22A6.13,6.13,0,0,0,132,66.19a8.66,8.66,0,0,0-5.27,1c-2.28,1-4.75,2.73-5.47,6.16a17.47,17.47,0,0,0,0,5.54A91.13,91.13,0,0,0,123.14,89Z"/><path class="cls-2" d="M138.8,87.78c-.22-4.39-.43-8.78-.66-13.17-.19-3.46-.88-7.26-4.24-9-3.06-1.61-6.79-.27-9.52,1.46a9.7,9.7,0,0,0-4.57,8.2,37.22,37.22,0,0,0,.71,7c.37,2.4.85,4.77,1.42,7.13a1.26,1.26,0,0,0,1.2.92L137.55,89c1.59-.14,1.6-2.64,0-2.5l-14.41,1.23,1.21.92c-1-4.25-2.11-8.85-2-13.24.06-4,2.6-6.34,6.16-7.61,1.77-.63,3.63-.78,5.11.55s1.88,3.41,2,5.37c.31,4.67.47,9.35.71,14C136.38,89.38,138.88,89.39,138.8,87.78Z"/><path class="cls-9" d="M135.24,89.32l-.49-9.57a13.88,13.88,0,0,0-.39-3.12,4.51,4.51,0,0,0-3.13-3.27,6.14,6.14,0,0,0-3.78.74,6.31,6.31,0,0,0-3.92,4.54,13.13,13.13,0,0,0,0,4.1,68.4,68.4,0,0,0,1.34,7.48Z"/><path class="cls-9" d="M136.49,89.32c-.17-3.24-.32-6.49-.49-9.73-.14-2.65-.68-5.57-3.23-7-2.3-1.26-5.13-.27-7.18,1.07A7.51,7.51,0,0,0,122.14,80a29.85,29.85,0,0,0,.52,5.25q.42,2.66,1,5.27a1.28,1.28,0,0,0,1.21.92l10.34-.9c1.59-.13,1.6-2.64,0-2.5L124.9,89l1.2.91a41.31,41.31,0,0,1-1.47-9.69c0-2.73,1.7-4.39,4.15-5.3a3,3,0,0,1,3.33.33A5.32,5.32,0,0,1,133.46,79c.23,3.46.35,6.92.53,10.37C134.07,90.92,136.57,90.93,136.49,89.32Z"/><path class="cls-2" d="M244.2,88.41l.27-13a17.92,17.92,0,0,1,.42-4.23,6.14,6.14,0,0,1,4.21-4.54,8.6,8.6,0,0,1,5.3.85c2.32,1,4.84,2.58,5.65,6a17.16,17.16,0,0,1,.13,5.55,90,90,0,0,1-1.54,10.17Z"/><path class="cls-2" d="M245.45,88.41c.1-4.72.11-9.44.3-14.15.08-1.93.38-3.93,1.83-5.34s3.43-1.3,5.29-.67c3.42,1.16,6,3.37,6.2,7.18A36.7,36.7,0,0,1,258.6,82c-.29,2.29-.69,4.57-1.16,6.83l1.2-.91-14.44-.8c-1.6-.09-1.6,2.41,0,2.5l14.44.8a1.28,1.28,0,0,0,1.21-.92A76.54,76.54,0,0,0,261.58,77c.12-3.5-.84-6.8-3.7-9-2.51-1.92-6.49-3.54-9.61-2.43-3.34,1.18-4.74,4.58-5,7.87-.36,4.94-.23,10-.34,14.93A1.25,1.25,0,0,0,245.45,88.41Z"/><path class="cls-9" d="M246.56,89.88l.2-9.58a13.41,13.41,0,0,1,.3-3.13,4.48,4.48,0,0,1,3-3.36,6.07,6.07,0,0,1,3.8.62,6.32,6.32,0,0,1,4.05,4.42A13.07,13.07,0,0,1,258,83a66.26,66.26,0,0,1-1.11,7.51Z"/><path class="cls-9" d="M247.81,89.88c.07-3.48.08-7,.22-10.45a5.39,5.39,0,0,1,1.21-3.72,3,3,0,0,1,3.31-.46c2.41.8,4.19,2.36,4.33,5a27.61,27.61,0,0,1-.34,4.89c-.2,1.66-.49,3.32-.82,5l1.2-.92-10.36-.58c-1.61-.09-1.6,2.41,0,2.5l10.36.58a1.25,1.25,0,0,0,1.21-.91,58.77,58.77,0,0,0,1.26-9.33c.09-2.67-.63-5.22-2.8-6.9-1.91-1.49-4.91-2.72-7.29-1.82-2.53,1-3.56,3.58-3.74,6.1-.26,3.66-.17,7.36-.25,11A1.25,1.25,0,0,0,247.81,89.88Z"/><path class="cls-3" d="M196.16,195l1.7-.81c.19-.09.26-.11,0,0l.42-.16a8.69,8.69,0,0,1,.86-.29q.47-.12.93-.21c.18,0,.33,0,.07,0,.15,0,.29,0,.44,0s.91.07.35,0c.48.06,1,.14,1.45.19l.39,0c.34,0-.47-.09-.12,0l.78.15a15.07,15.07,0,0,1,1.62.48l.4.15c.35.12-.35-.17,0,0l.74.36c.23.13.45.26.67.41.05,0,.39.29.12.07s.13.13.15.15a2.5,2.5,0,1,0,3.54-3.54,14.11,14.11,0,0,0-8.07-3.23l-.45,0c-.35,0,.4.05-.08,0s-.91-.13-1.37-.15a9.51,9.51,0,0,0-2.65.35,25.56,25.56,0,0,0-4.43,1.84,2.52,2.52,0,0,0-.9,3.42,2.56,2.56,0,0,0,3.42.9Z"/><path class="cls-3" d="M341.89,192.12a191,191,0,0,1,20.86-17,2.58,2.58,0,0,0,.9-3.42,2.51,2.51,0,0,0-3.42-.9,202.83,202.83,0,0,0-21.88,17.77c-2.35,2.21,1.19,5.74,3.54,3.54Z"/><path class="cls-3" d="M64.23,188.13A201.86,201.86,0,0,0,41.84,171c-2.69-1.78-5.2,2.55-2.52,4.31a193.6,193.6,0,0,1,21.37,16.35,2.56,2.56,0,0,0,3.54,0,2.52,2.52,0,0,0,0-3.53Z"/><rect class="cls-10" x="61.29" y="131.53" width="128.5" height="128.5" rx="16.66" transform="translate(2.66 -1.68) rotate(0.77)"/><g class="cls-11"><path class="cls-12" d="M110.61,204.16a355.22,355.22,0,0,1,30.49-31.95c2.37-2.19-1.17-5.72-3.54-3.54a353.89,353.89,0,0,0-30.48,32,2.55,2.55,0,0,0,0,3.53,2.5,2.5,0,0,0,3.53,0Z"/></g><g class="cls-11"><path class="cls-12" d="M125.52,217.75l1.33-1.79.76-1c.11-.13.21-.27.31-.4l.28-.36c.8-1,2-2.47,2.92-3.63a68.81,68.81,0,0,1,6.43-6.79,2.5,2.5,0,0,0,0-3.53,2.54,2.54,0,0,0-3.53,0c-4.88,4.41-9,9.71-12.82,15a2.51,2.51,0,0,0,.9,3.42,2.56,2.56,0,0,0,3.42-.9Z"/></g><rect class="cls-10" x="210.24" y="132.42" width="128.5" height="128.5" rx="16.66" transform="translate(2.68 -3.69) rotate(0.77)"/><g class="cls-11"><path class="cls-12" d="M259.56,205.05a356.62,356.62,0,0,1,30.49-32c2.37-2.19-1.17-5.72-3.53-3.53a352.56,352.56,0,0,0-30.49,32,2.56,2.56,0,0,0,0,3.53,2.5,2.5,0,0,0,3.53,0Z"/></g><g class="cls-11"><path class="cls-12" d="M274.47,218.64l1.33-1.79.76-1c.11-.14.21-.28.32-.41s.4-.52.27-.36c.81-1,2-2.47,2.93-3.63a66.54,66.54,0,0,1,6.43-6.79,2.51,2.51,0,0,0,0-3.53,2.55,2.55,0,0,0-3.54,0c-4.88,4.41-8.94,9.71-12.81,15a2.5,2.5,0,0,0,.89,3.42,2.56,2.56,0,0,0,3.42-.9Z"/></g><path class="cls-13" d="M195,39.35A87.84,87.84,0,0,1,212.1,67.94l.13.29c-6.72,9.3-14.2,18.36-23.9,24.49s-21.14,9-32.43,11.28c-5.38,1.08-10.87,2-16.35,1.61A62,62,0,0,1,128,103.19c-7.22-2-14.67-4.3-20.2-9.35l-.37.16a312.48,312.48,0,0,1-3.36-45.83"/><path class="cls-14" d="M193.22,41.12a85,85,0,0,1,9.86,13.53c1.42,2.4,2.72,4.88,3.9,7.41s2,5,3.09,7.43V67a115.3,115.3,0,0,1-14.19,16.69,58.62,58.62,0,0,1-18.24,11.72,125,125,0,0,1-22.19,6.17,70.44,70.44,0,0,1-12.27,1.66,42.55,42.55,0,0,1-12-1.74c-7.51-2-15.67-4.07-21.61-9.4a2.62,2.62,0,0,0-3-.39l-.37.17,3.68,1.49a310.36,310.36,0,0,1-3.27-45.17c0-3.22-5-3.23-5,0A318.9,318.9,0,0,0,105,94.67c.25,1.75,2.38,2.08,3.67,1.49l.37-.17-3-.39c5.73,5.15,13,7.66,20.32,9.72a72,72,0,0,0,12.73,2.75,49.9,49.9,0,0,0,13.19-.85,140.42,140.42,0,0,0,24-6,66,66,0,0,0,20.77-11.92c6.69-5.74,12.18-12.71,17.33-19.82a2.52,2.52,0,0,0,0-2.52c-1-2.19-2-5-3.09-7.43a87.72,87.72,0,0,0-4.12-7.79,93.1,93.1,0,0,0-10.42-14.17c-2.15-2.4-5.67,1.14-3.54,3.54Z"/><polygon class="cls-15" points="154.24 68.86 224.88 15.56 146.15 0.53 65.39 53.36 154.24 68.86"/><path class="cls-16" d="M147.39,30.47c-16.54,1.13-32,8-45.74,16.9a202.54,202.54,0,0,0-18,13.24c-4.3,3.53-10.2,8.84-8.88,15.08.49,2.32,1.42,4.55,1.94,6.88a67.87,67.87,0,0,1,1.23,7.66c.55,5.08.68,10.2.82,15.3a1.25,1.25,0,0,0,2.5,0c-.24-8.59-.45-17.29-2.63-25.65-.45-1.76-1.35-3.56-1.53-5.37a7.12,7.12,0,0,1,.81-3.81,23.72,23.72,0,0,1,6-7,169.27,169.27,0,0,1,16.72-12.6A127.19,127.19,0,0,1,121.5,39.46,79.84,79.84,0,0,1,147.39,33c1.6-.11,1.61-2.61,0-2.5Z"/><path class="cls-16" d="M74.67,72c-4.21,3.36-6.18,8.64-7.2,13.77a57.1,57.1,0,0,0-.39,19.73c.24,1.58,2.65.91,2.41-.67a53.59,53.59,0,0,1,.39-18.39c.94-4.76,2.65-9.55,6.56-12.67,1.25-1-.52-2.76-1.77-1.77Z"/><path class="cls-16" d="M73.65,75.18a169.38,169.38,0,0,0-1.29,28.65c.06,1.6,2.56,1.61,2.5,0a169.38,169.38,0,0,1,1.29-28.65c.2-1.59-2.3-1.57-2.5,0Z"/><path class="cls-16" d="M73.1,78c2.59,7.22,5.82,16.54.5,23.39-1,1.25.78,3,1.77,1.76,6-7.7,3.12-17.51.14-25.81-.54-1.5-3-.86-2.41.66Z"/><path class="cls-16" d="M72.57,76.9c-5,8.24-8.17,19-2.45,27.76.88,1.34,3,.09,2.16-1.27-5.23-8-2.06-17.73,2.45-25.23a1.25,1.25,0,0,0-2.16-1.26Z"/><path class="cls-16" d="M71.78,82.53a28,28,0,0,1-3,13c-.73,1.43,1.43,2.7,2.16,1.26a30.68,30.68,0,0,0,3.32-14.25,1.25,1.25,0,0,0-2.5,0Z"/><path class="cls-17" d="M385.7,265.36c1.82-.1,6.56.39,8.82.14,10.65-56.41,34.06-119.16,49.05-174.58,4-14.86,7.13-27.52,9.67-41.16a90.62,90.62,0,0,1-8-4.79L406.28,155.34Z"/><path class="cls-18" d="M385.7,267.86c2.93-.12,5.88.42,8.82.14a2.57,2.57,0,0,0,2.41-1.84c5.39-28.48,13.41-56.4,21.82-84.11,8.48-27.94,17.55-55.69,25.4-83.81,4.41-15.8,8.49-31.69,11.5-47.82a2.57,2.57,0,0,0-1.15-2.82,74.92,74.92,0,0,1-8-4.79,2.53,2.53,0,0,0-3.67,1.49l-3.73,10.58-9,25.42-11,31.23-9.73,27.59L404.1,154a50.86,50.86,0,0,0-1.52,7.56L398,186l-6,32.29-5.5,29.44-3,16.23-.15.77a2.58,2.58,0,0,0,1.75,3.08,2.53,2.53,0,0,0,3.08-1.75l2.14-11.46,5.09-27.19,6.1-32.59,5.09-27.24,1.57-8.38c.2-1,.32-2.13.59-3.16s.66-1.86,1-2.77l2.7-7.66,8.94-25.35,11-31.21,9.75-27.65,5.3-15,.25-.71L444,47.12a74.87,74.87,0,0,0,8,4.8l-1.14-2.83c-5.29,28.37-13.64,56.12-22.09,83.67-8.69,28.31-17.8,56.49-25.58,85.06-4.22,15.54-8.06,31.19-11.05,47l2.41-1.83c-2.94.28-5.89-.26-8.82-.14C382.49,263,382.47,268,385.7,267.86Z"/><path class="cls-17" d="M385.7,265.36c10.74-57,34.69-122.72,49.78-178.77,4-15,7.18-27.83,9.73-41.62a232,232,0,0,0-35.81-5.92C394.51,110.87,379,187.86,364.12,259.68,371.22,262.49,375.72,262.84,385.7,265.36Z"/><path class="cls-18" d="M388.11,266c2.67-14.18,6-28.22,9.67-42.18,3.83-14.55,8-29,12.34-43.43s8.87-29.07,13.31-43.61c4.25-13.92,8.45-27.86,12.36-41.88,4-14.49,7.83-29.07,10.78-43.83q.54-2.73,1.05-5.46a2.56,2.56,0,0,0-1.74-3.08,238.44,238.44,0,0,0-36.48-6A2.5,2.5,0,0,0,407,38.38q-8.88,42.86-17.62,85.74-8.87,43.4-17.74,86.78Q366.69,235,361.71,259a2.6,2.6,0,0,0,1.75,3.08c7,2.72,14.36,3.86,21.57,5.67,3.12.78,4.45-4,1.33-4.82-7.21-1.81-14.62-2.95-21.57-5.68l1.74,3.08q8.88-42.86,17.62-85.74,8.87-43.4,17.74-86.78,5-24.06,9.92-48.12l-2.41,1.84a228.74,228.74,0,0,1,35.15,5.83L442.8,44.3c-2.77,14.91-6.45,29.61-10.44,44.24-3.8,13.93-7.92,27.77-12.12,41.58-4.41,14.51-8.91,29-13.3,43.51s-8.62,28.93-12.55,43.5c-3.78,14.05-7.26,28.18-10.11,42.45-.34,1.7-.67,3.41-1,5.11a2.57,2.57,0,0,0,1.75,3.08A2.53,2.53,0,0,0,388.11,266Z"/><path class="cls-19" d="M433,43.33c-10.85,26.76-11.59,56.14-17.45,84.12A167.07,167.07,0,0,1,410,148a180.24,180.24,0,0,1-9.25,21,200.83,200.83,0,0,0-9.18,20.82,193,193,0,0,0-6.33,21.57c-3.93,16.62-6.15,33.58-8.35,50.5-.2,1.59,2.3,1.57,2.5,0,2-15.2,4-30.41,7.25-45.4A186.33,186.33,0,0,1,401.07,174c3.39-6.94,7-13.79,9.77-21A149.07,149.07,0,0,0,417,132.72c3.24-13.94,5-28.17,7.17-42.3,2.41-15.75,5.29-31.6,11.3-46.43.61-1.49-1.81-2.14-2.41-.66Z"/><path class="cls-19" d="M371.07,261.16c2.58-12,5.35-23.88,8.14-35.8q5.42-23,11-46,6-24.9,12.13-49.77Q408.1,106,413.87,82.53q4.63-18.93,9.21-37.87c.3-1.23.6-2.46.89-3.69.37-1.57-2-2.23-2.41-.67q-4.35,18.17-8.82,36.3-5.65,23.15-11.34,46.28-6.09,24.88-12.14,49.78-5.67,23.4-11.23,46.82c-2.94,12.45-5.85,24.91-8.59,37.4l-.78,3.62c-.34,1.57,2.07,2.24,2.41.66Z"/><path class="cls-18" d="M388.11,266c2.67-14.18,6-28.22,9.67-42.18,3.83-14.55,8-29,12.34-43.43s8.87-29.07,13.31-43.61c4.25-13.92,8.45-27.86,12.36-41.88,4-14.49,7.83-29.07,10.78-43.83q.54-2.73,1.05-5.46a2.56,2.56,0,0,0-1.74-3.08,238.44,238.44,0,0,0-36.48-6A2.5,2.5,0,0,0,407,38.38q-8.88,42.86-17.62,85.74-8.87,43.4-17.74,86.78Q366.69,235,361.71,259a2.6,2.6,0,0,0,1.75,3.08c7,2.72,14.36,3.86,21.57,5.67,3.12.78,4.45-4,1.33-4.82-7.21-1.81-14.62-2.95-21.57-5.68l1.74,3.08q8.88-42.86,17.62-85.74,8.87-43.4,17.74-86.78,5-24.06,9.92-48.12l-2.41,1.84a228.74,228.74,0,0,1,35.15,5.83L442.8,44.3c-2.77,14.91-6.45,29.61-10.44,44.24-3.8,13.93-7.92,27.77-12.12,41.58-4.41,14.51-8.91,29-13.3,43.51s-8.62,28.93-12.55,43.5c-3.78,14.05-7.26,28.18-10.11,42.45-.34,1.7-.67,3.41-1,5.11a2.57,2.57,0,0,0,1.75,3.08A2.53,2.53,0,0,0,388.11,266Z"/><path class="cls-17" d="M307.54,141.42c.2,2,.89,6.67,2,8.3l.47.28a563.41,563.41,0,0,1,179.82,39.85s6.06-5.57,7.19-7.74L397,143Z"/><path class="cls-18" d="M305,141.42a37.43,37.43,0,0,0,1.24,6.89,8.42,8.42,0,0,0,1.33,2.92c1.05,1.28,2.53,1.27,4.07,1.36q9.93.56,19.84,1.47,19.47,1.8,38.78,5a565.68,565.68,0,0,1,76.94,18.26q21.27,6.66,42,15a2.45,2.45,0,0,0,2.43-.64q1.67-1.55,3.27-3.16a24.39,24.39,0,0,0,4.31-5.09,2.54,2.54,0,0,0-1.49-3.67l-8.48-3.31-20.84-8.15L442.11,158l-24.87-9.72-16.53-6.46c-1-.39-2-.87-3-1.17a10.4,10.4,0,0,0-2.67-.15l-17.68-.31-27.48-.49-26.6-.47-15-.27h-.71c-3.22-.06-3.22,4.94,0,5l10.64.19,24.65.43,28.26.51,21,.37c1.52,0,3.06.12,4.58.08.73,0-.48-.2-.28-.05a4.69,4.69,0,0,0,1,.41l13.6,5.31,23.42,9.15,26.47,10.35,22.8,8.9,12.11,4.73.55.22-1.5-3.67a6.81,6.81,0,0,1-.6.91c.31-.41-.12.14-.19.22l-.5.59c-.78.88-1.6,1.72-2.43,2.56-1,1-2,2-3.08,3l2.44-.65a564.92,564.92,0,0,0-140-36.29q-20.2-2.57-40.54-3.65l1.26.34-.47-.28.89.9c-1.08-1.67-1.48-5-1.69-7a2.57,2.57,0,0,0-2.5-2.5A2.52,2.52,0,0,0,305,141.42Z"/><path class="cls-17" d="M317.44,37.62l-5.89,79.91c-.62,8.49-1.27,17.1-4.14,25.12a623.5,623.5,0,0,1,189.48,41l39-109.78.36-.91C462.88,66.05,389.72,57.63,318.8,37.6Z"/><path class="cls-18" d="M314.94,37.62c-2,27.72-4,55.45-6.13,83.16-.57,7.19-1.4,14.37-3.81,21.21a2.52,2.52,0,0,0,2.41,3.16A620.21,620.21,0,0,1,455.82,172q20.44,6.34,40.4,14.07c1.33.51,2.66-.58,3.08-1.75l31.12-87.63c2.73-7.67,5.22-15.49,8.23-23,.65-1.65-1-3-2.41-3.17-29.19-2.75-58.36-5.74-87.42-9.62S391.06,52.23,362.55,46q-12-2.64-23.95-5.65c-3.9-1-7.79-2-11.68-3.06-3.09-.83-6.26-2.16-9.48-2.13s-3.22,5,0,5a8.51,8.51,0,0,1,1,0c.08,0,.5.1.15,0a7.55,7.55,0,0,1,.93.26L325.12,42q5.37,1.45,10.75,2.83,10.51,2.67,21.11,5.06,21.4,4.81,43,8.56c28.9,5.06,58,8.88,87.17,12.1,16.34,1.81,32.7,3.43,49.07,5l-2.41-3.16C531.18,79,529,85.8,526.6,92.53l-7.69,21.68L503.35,158l-8.87,25,3.07-1.75A624.39,624.39,0,0,0,350,144.05q-21.22-2.69-42.6-3.9l2.41,3.17a80.13,80.13,0,0,0,3.73-19.52c.63-6.88,1.06-13.78,1.56-20.66l3.08-41.7,1.75-23.82a2.52,2.52,0,0,0-2.5-2.5A2.55,2.55,0,0,0,314.94,37.62Z"/><path class="cls-19" d="M526.57,100.77c-25.86-9.89-54.11-8.88-81.05-13.51a141.23,141.23,0,0,1-19.58-4.69A164.65,164.65,0,0,1,405.77,74a172.61,172.61,0,0,0-19.61-8.24,167.59,167.59,0,0,0-20.46-5.34c-16-3.18-32.25-4.54-48.47-5.86-1.6-.13-1.6,2.37,0,2.5,14.49,1.18,29,2.38,43.34,4.93a160.31,160.31,0,0,1,40.6,12.58c6.51,3.07,12.94,6.34,19.69,8.86a123.48,123.48,0,0,0,19.54,5.4c13.46,2.67,27.16,3.72,40.78,5.16,15.15,1.61,30.42,3.71,44.73,9.18,1.5.58,2.15-1.84.66-2.41Z"/><path class="cls-19" d="M311.31,126.42a264.2,264.2,0,0,1,80.76-7.06,251,251,0,0,1,37.5,5.5,306,306,0,0,1,36.19,10.86c14,5,28.29,10,43.31,10.19a1.25,1.25,0,0,0,0-2.5c-13.54-.15-26.52-4.38-39.15-8.86-12-4.25-24-8.38-36.35-11.34a256.9,256.9,0,0,0-76.78-6.38A273.56,273.56,0,0,0,310.65,124c-1.56.38-.9,2.79.66,2.41Z"/><path class="cls-19" d="M521.35,116.44c-11.46-.48-22.9-1.57-34.3-2.8-14.48-1.56-28.93-3.42-43.35-5.46q-23.31-3.29-46.53-7.17c-14.65-2.46-29.28-5.08-43.86-8-11.69-2.32-23.36-4.78-34.9-7.76L315,84.38a1.25,1.25,0,0,0-.67,2.41c11.08,3,22.31,5.41,33.56,7.7,14.32,2.92,28.71,5.55,43.12,8q23.29,4,46.68,7.35c14.72,2.12,29.46,4.07,44.23,5.74,11.9,1.34,23.83,2.54,35.79,3.19l3.61.17c1.61.07,1.6-2.43,0-2.5Z"/><path class="cls-19" d="M504.67,159a232.64,232.64,0,0,0-62.9-4.59c-5.92.38-11.83,1-17.71,1.82-1.59.22-.91,2.63.67,2.41a230,230,0,0,1,62-.22q8.71,1.15,17.32,3c1.57.33,2.24-2.08.66-2.41Z"/><path class="cls-19" d="M387.86,150c-7-7.85-17.17-10.92-27.31-12.26-10.89-1.45-21.95-1.18-32.81-2.87a53.58,53.58,0,0,1-17.27-5.32c-1.42-.76-2.69,1.39-1.27,2.15,9.56,5.12,20.57,6.24,31.21,6.95s21.58.74,31.75,4.18a32.29,32.29,0,0,1,13.94,8.94c1.07,1.2,2.84-.57,1.76-1.77Z"/><path class="cls-18" d="M314.75,37.06C312.82,64.79,311,92.53,309,120.25c-.53,7.19-1.33,14.37-3.71,21.22a2.53,2.53,0,0,0,2.41,3.17,617.63,617.63,0,0,1,75.14,8.59,626,626,0,0,1,73.51,17.66q20.4,6.24,40.34,13.86a2.55,2.55,0,0,0,3.07-1.75l30.75-87.76c2.69-7.69,5.15-15.51,8.13-23.09.65-1.64-1-3-2.41-3.16-29.27-2.64-58.51-5.51-87.66-9.28-28.84-3.72-57.59-8.35-86-14.47q-12-2.6-24-5.56-5.88-1.45-11.72-3c-3.09-.83-6.29-2.15-9.5-2.11s-3.23,5,0,5c.33,0,.67,0,1,0,.08,0,.51.1.15,0,.31.06.64.18.94.26,1.87.52,3.74,1,5.61,1.52q5.39,1.44,10.78,2.79,10.56,2.64,21.18,5,21.46,4.74,43.15,8.39c28.83,4.91,57.86,8.6,86.93,11.69,16.39,1.75,32.79,3.3,49.2,4.78l-2.41-3.17c-2.62,6.65-4.78,13.51-7.14,20.26l-7.6,21.7-15.38,43.88-8.76,25,3.07-1.75a623.56,623.56,0,0,0-72.81-22.82,630.3,630.3,0,0,0-74.78-13.73q-21.28-2.61-42.72-3.73l2.41,3.16a80.47,80.47,0,0,0,3.65-19.53c.6-6.88,1-13.78,1.47-20.67l2.9-41.71,1.66-23.83a2.5,2.5,0,0,0-5,0Z"/><path d="M403.61,122.72a5.12,5.12,0,0,1,4.22-1q4,.66,5.54,3.19a7.08,7.08,0,0,1,1.22,4.62c-.19,1.41-.7,2.08-1.51,2-1.15-.2-1.87-.5-2.14-.92-.32,0-.67-.33-1.06-.92a3,3,0,0,1-.59-1.36l-.31-1.42a1.57,1.57,0,0,0-.82-1.25c-.57.11-.93.57-1.1,1.4a7.88,7.88,0,0,0,1.39,5.15,8.36,8.36,0,0,0,.63,1.16q3.18,5.35,2.78,8.14a3,3,0,0,1-1.2,2.19,7.75,7.75,0,0,1-6.38,1.57,7.83,7.83,0,0,1-5.46-3.44,1.8,1.8,0,0,1-.39-1.32,2.77,2.77,0,0,1,.06-1.34,7.58,7.58,0,0,1,.44-2.18c.44-1.07,1.37-1.47,2.79-1.22.52.1.79.48.8,1.13a11.85,11.85,0,0,0,.57,3.74,2.15,2.15,0,0,0,1.78,1.18,1.63,1.63,0,0,0,2-1.59,5,5,0,0,0-1-3.73,5.52,5.52,0,0,0-.82-1.17,5.89,5.89,0,0,1-.55-.62.68.68,0,0,0-.2-.37,20.46,20.46,0,0,1-2.06-3.28,6.56,6.56,0,0,1-1-3.93A6.05,6.05,0,0,1,403.61,122.72Z"/><path d="M431.28,116.82c-.26.85-.43,1.47-.51,1.87a9.57,9.57,0,0,1-.27,1.06l-.27,1.35-.13.35-.22,1.09c-.06.31-.15.62-.24.92h1.89c.14,0,.66,0,1.56,0a11,11,0,0,1,2.41.24,2.12,2.12,0,0,1,1.36.74,1.66,1.66,0,0,1,.15,1.27,1.49,1.49,0,0,1-.61,1.12l-.27.27a1.93,1.93,0,0,1-1.37.64l-1.87-.11-2.46.1-1.5.24c-.15.87-.28,1.83-.4,2.89s-.23,1.79-.32,2.21l-.23,2q-.25,4.71-.13,9.71a8,8,0,0,1,.24,2.27l.19,1.17c-.1,1.2-.95,1.65-2.54,1.32a20,20,0,0,1-2-.63c-.31-.1-.69-.5-1.16-1.21a2.54,2.54,0,0,0-.44-.79l-.5-2.59a3.76,3.76,0,0,1-.06-1,5.44,5.44,0,0,1-.41-2.78,2.6,2.6,0,0,0,0-.54l.14-.73a4,4,0,0,1-.1-2.13c.12-1.13.21-2.19.27-3.19a25.15,25.15,0,0,0,.48-4l.12-1.17.1-.46c.1-.34.14-.52.1-.52l-.62-.13a4,4,0,0,1-1.3-.26,3.63,3.63,0,0,1-2.9-1.94c-.23-1-.12-1.63.32-1.83a8.45,8.45,0,0,1,3-.26,7,7,0,0,0,2.68-.16,3.66,3.66,0,0,1,.45-1.43,5.67,5.67,0,0,1,.65-1.46,2.26,2.26,0,0,0,.38-.65,14.72,14.72,0,0,1,1.63-3.51,6.71,6.71,0,0,1,.9-1.49c.58-.57,1.56-.59,2.93-.06a2.12,2.12,0,0,1,1.16.94C431.62,115.56,431.55,116,431.28,116.82Z"/><path d="M447.28,147.38l-1.2,1.87a22.94,22.94,0,0,1-2,1.93,2,2,0,0,1-2,.74,6.74,6.74,0,0,1-2.41-.77,7,7,0,0,1-2.17-1.84,8.27,8.27,0,0,1-1.1-3,9,9,0,0,1-.24-3.21,21.84,21.84,0,0,1,.18-2.23l.26-1.25a7.76,7.76,0,0,1,.6-2.15l.48-1a12.68,12.68,0,0,1,2.09-3.9q2.68-3.4,4.74-3.09l.26.05a.61.61,0,0,0,.3.11l.67.14a11.84,11.84,0,0,1,2.17.77,5.75,5.75,0,0,0,1.31.48l1.3.53a4.58,4.58,0,0,1,1.58.6c.63.34,1,.57,1,.68a9.76,9.76,0,0,1,.05,1.2c0,.69,0,1.19,0,1.49s0,.62-.06.94a43,43,0,0,0-.08,7.33c0,.12,0,.28,0,.49a10,10,0,0,0,.11,1.3c.09.65.14,1.19.16,1.63a13.4,13.4,0,0,0,.23,1.77,12.77,12.77,0,0,0,.57,2q.81,1.84-1.71,2.25a3.73,3.73,0,0,1-1.11-.12,4,4,0,0,1-.88-.72,1.33,1.33,0,0,1-.87-.77l-.39-.19a1.08,1.08,0,0,0-.55-.49c-.06-.08-.4-1.61-1-4.58A3.93,3.93,0,0,0,447.28,147.38Zm.4-10.24a3,3,0,0,0-.17-1.85,2.38,2.38,0,0,0-1.57-1,5,5,0,0,0-1.31,1.55,11.21,11.21,0,0,0-1.39,3,24.46,24.46,0,0,0-1.54,4.88,7.36,7.36,0,0,0,.08,3.9c0,.16.1.22.17.2s.52-.25,1-.87A20.15,20.15,0,0,0,447.68,137.14Z"/><path d="M463.87,149.57c.46-.67,1-1.45,1.5-2.35l1.74-2.68.64-.78q-13.08,10.32.26-.22l1.92-2.53a1.39,1.39,0,0,0,.4-.62l1.76-1.76,1.23-.72a2.76,2.76,0,0,0,.78-.38c.06.08.35.07.87,0,.32.06.93.24,1.84.53l1,.58,2.05,1.88a1.86,1.86,0,0,1,.31,1.68c-.12.41-.55,1.51-1.27,3.31q-.87,2.16-2.24,4.9a12.27,12.27,0,0,0-.95,3.33c0,.71-.06,1.12-.08,1.22s.06.54.1.94,0,.62-.05.64c.24.09.33.28.26.6a2.71,2.71,0,0,1,0,1.53,2,2,0,0,1-.85.72,3.08,3.08,0,0,1-2,.08,10.76,10.76,0,0,0-1.31-.38,2.78,2.78,0,0,1-1.14-.61,3.84,3.84,0,0,1-1.26-2.58,5.47,5.47,0,0,1-.09-1.15,3.76,3.76,0,0,1,.05-.53A9.2,9.2,0,0,1,470,151a22,22,0,0,1,1-2.45,23.76,23.76,0,0,1,1.46-3,5.18,5.18,0,0,0,.19-1.21l-2.82,3.54A7.37,7.37,0,0,1,469,149a.86.86,0,0,0-.38.57,4.08,4.08,0,0,0-1.12,1.5,1.6,1.6,0,0,1-.16.51,5.41,5.41,0,0,1-.54.68,4.54,4.54,0,0,0-.7,1,3,3,0,0,1-.88,1,14.92,14.92,0,0,1-1.1,2c-.07.13-.46.18-1.17.14l-1-.3-1.61-.87a15.61,15.61,0,0,0-1.4-.72.27.27,0,0,1-.21-.15,1.57,1.57,0,0,1-.8-1.67l.17-.83c.22-.18.31-.57.3-1.19a11,11,0,0,0,.4-1.16c-.09-.09-.09-.21,0-.37.29-1.1.48-1.87.58-2.32l.25-1.25c.3-1.13.64-2.34,1-3.63s.59-2.13.67-2.52l.21-1a3.84,3.84,0,0,1,.19-1.21,3.44,3.44,0,0,0,0-1.27,1.08,1.08,0,0,1,0-.72l.54-.81a3.42,3.42,0,0,1,2.86.31,8.5,8.5,0,0,1,2.23,1.53c.05.12.17.38.38.78.21,0,.27.36.19,1a6.16,6.16,0,0,0-.21.77,23.39,23.39,0,0,0-1.06,2.27q-2.61,7-2.74,7.61A2.64,2.64,0,0,0,463.87,149.57Z"/><path d="M339.16,75.9a4.88,4.88,0,0,0-.22.82,5.23,5.23,0,0,1-.32,1.07,3.23,3.23,0,0,0-.23,1.14,10.48,10.48,0,0,0,.42,2.47c0,.1.18.43.61,1l.42.19a2.29,2.29,0,0,1,.36.21,1.47,1.47,0,0,0,.74.09,2.29,2.29,0,0,0,.8-.1c.14-.06.43-.21.88-.45a3.08,3.08,0,0,1,1.44-.73,24.58,24.58,0,0,1,2.2-1.23,3.69,3.69,0,0,1,1.11.12,1.11,1.11,0,0,1,.49.53,2.28,2.28,0,0,1,0,2.21,7.16,7.16,0,0,1-2.12,2.44,2,2,0,0,1-.91.52,2.32,2.32,0,0,0-.41.4l-1.19.79a.4.4,0,0,0-.47.22c-.12.2-.62.37-1.51.51a11,11,0,0,1-2.69-.87,10.21,10.21,0,0,1-3.41-2.15l-.86-.83c0-.15-.33-.41-.87-.77l-.5-1-.61-1-.33-1a1.74,1.74,0,0,1,0-.85,5.57,5.57,0,0,0,0-1,6.41,6.41,0,0,0,.29-1.13,5.6,5.6,0,0,0,.33-1.12,2.61,2.61,0,0,0,.23-1.09l.14-.46.15-.73a7.87,7.87,0,0,1,.57-1.72l.81-1.89a4.26,4.26,0,0,1,.4-1.16A7.27,7.27,0,0,1,335.4,67l.06-.31a6.09,6.09,0,0,1,.22-.82l.08-.36.74-3.15a12.19,12.19,0,0,1,.54-1.3,7.19,7.19,0,0,1,.88-1.93,1.92,1.92,0,0,0,.49-.82,7.26,7.26,0,0,1,.36-1,2.79,2.79,0,0,0,.65-1.33,4.77,4.77,0,0,0,.5-1.09,2.45,2.45,0,0,1,.85-1.28c.11-.2.47-.37,1.08-.54h.06a8.27,8.27,0,0,1,1.61.06,4.42,4.42,0,0,1,1.52.74,4.81,4.81,0,0,1,1.3,1.08c.32.57,0,1.65-1,3.25a3.93,3.93,0,0,1-.7,1.31,4.28,4.28,0,0,1-.38,1.06,38,38,0,0,1-1.4,3.59A109.59,109.59,0,0,0,339.16,75.9Z"/><path d="M351.78,78.73l.75-2.6A12.77,12.77,0,0,1,356,70.44a6.38,6.38,0,0,1,5.43-1.17l.31.07a6.24,6.24,0,0,1,4.1,2.18,8.12,8.12,0,0,1,1.65,2.93,16.09,16.09,0,0,1,.5,2.16,7.15,7.15,0,0,1-.1,1.87q-.36,2.25-1.41,2.37c-.18,3.38-1,5.94-2.47,7.66a15.09,15.09,0,0,1-2,2.29,3.37,3.37,0,0,1-2.8.51,21.43,21.43,0,0,1-3.21-.87,7.77,7.77,0,0,1-2.77-1.94,6.24,6.24,0,0,1-1.59-4.13A24.29,24.29,0,0,1,351.78,78.73Zm10.5-3c0-1.43-.5-2.21-1.63-2.33a2.1,2.1,0,0,0-1.87.92A9.57,9.57,0,0,0,357,78.91a28.77,28.77,0,0,0-.43,4.23,5.64,5.64,0,0,0,.57,2.42,1.28,1.28,0,0,0,1.11.93c1,.19,1.84-.48,2.62-2l.67-1.16a.4.4,0,0,0,.21-.5,9.38,9.38,0,0,0,1.2-2.95,1.59,1.59,0,0,1-.49-.8,4.69,4.69,0,0,1-.07-1.26,1.25,1.25,0,0,1-.21-1.07A6.92,6.92,0,0,0,362.28,75.78Z"/><path d="M377.81,89.05l1.47-3.76a1.27,1.27,0,0,1,.18-.48,1.33,1.33,0,0,0,.17-.47c.09-.27.27-.71.54-1.3a1,1,0,0,1,.34-.63,13.81,13.81,0,0,1,2-3,3,3,0,0,1,.93-1.11,1.26,1.26,0,0,1,.45-.66l.85-1a3.59,3.59,0,0,1,.52-.7.86.86,0,0,0,.53-.46,3.93,3.93,0,0,1,.85-1c.16-.29.62-.5,1.37-.64l.83.17,1.07.6.68.68a1.48,1.48,0,0,1,.21.8c.08-.06.12,0,.1,0a18.41,18.41,0,0,1-1.09,2.21c-.58,1.07-1,1.83-1.22,2.27s-.49.88-.76,1.33c0,0-.25.5-.72,1.4a9.9,9.9,0,0,1-1.12,1.8l-1.72,3.43A10.33,10.33,0,0,0,383,90.81q-2.17,4.86-2.21,5.07a7,7,0,0,1-.68,1.21c-.19.54-.85.7-2,.46a2.7,2.7,0,0,0-.58-.6c-.13.12-.6,0-1.41-.23a6.23,6.23,0,0,1-3.67-1.4,6.65,6.65,0,0,1-.22-2.1,4.61,4.61,0,0,1-.36-2l-.33-1a3.35,3.35,0,0,0,0-1.3,3.75,3.75,0,0,1,0-1.2,2.08,2.08,0,0,1,0-.86,3.51,3.51,0,0,1,.08-.9,7.93,7.93,0,0,1,.26-2.09,18.69,18.69,0,0,0,.42-2.59,7.49,7.49,0,0,0,.17-1.1l.32-1.34a7.63,7.63,0,0,1,.3-1.19,6.22,6.22,0,0,1,.08-1.49l.15-1a6.42,6.42,0,0,0,.14-1.21,2.22,2.22,0,0,1,.34-1.13,3.45,3.45,0,0,1,.91-.51,1.86,1.86,0,0,1,1.88.32l1.19.84.39.46c.05.08,0,.25-.16.51L377.78,77a18.18,18.18,0,0,0-.31,3.1q-.06,1.92-.21,3.15c-.09.83-.19,2-.29,3.46s-.17,2.39-.21,2.74c-.13.66-.14,1,0,1.14A7.66,7.66,0,0,0,377.81,89.05Z"/><path d="M394.79,100l-.49-.21-.58-.87a.52.52,0,0,1-.42-.35c-.29-.53-.8-1.57-1.53-3.13l-.2-3a3.24,3.24,0,0,0,0-1.52c0-1.63-.06-2.56-.08-2.8a9.8,9.8,0,0,1,.25-1.92,11,11,0,0,1,.6-2.26,28.42,28.42,0,0,1,2.91-4.49,2.16,2.16,0,0,0,.83-1.14l1.07-1A7.55,7.55,0,0,1,400,75.76a6.83,6.83,0,0,1,1.87-.16,6.14,6.14,0,0,1,1.61.6q3,1.36,3.53,2.61l.1.29a8.49,8.49,0,0,1,.27,4.54c-.28.85-.52,1.56-.7,2.13a14.23,14.23,0,0,1-1.8,3,15.44,15.44,0,0,1-2,2,3.71,3.71,0,0,1-1.73.51,2.21,2.21,0,0,1-.9-.07l-1.2-.24a2.6,2.6,0,0,0-.66-.19,6.38,6.38,0,0,1-1.46-.57,12.33,12.33,0,0,0,0,3.38,8.74,8.74,0,0,0,.55,2.79A8.91,8.91,0,0,0,399,97.84a3.16,3.16,0,0,0,1.64.41,2.63,2.63,0,0,0,1.65-.39l1.69-1.39c1.1-1,2-.93,2.71.22a1.55,1.55,0,0,1,.23,1.43,14.67,14.67,0,0,1-1.59,2.35,10.38,10.38,0,0,1-2.08,1.74,7.44,7.44,0,0,1-2.09.44,4.7,4.7,0,0,1-1.43-.45,2.76,2.76,0,0,1-1.75-.41c0-.07-.08-.13-.26-.18a3.67,3.67,0,0,1-.72-.34l.12,0-.63-.13L395.16,100ZM403,80.17c0-.19-.25-.31-.66-.35a1.11,1.11,0,0,0-1,.44A14.63,14.63,0,0,0,397.59,87c1.12.52,2.23.2,3.33-.94Q403.56,81.3,403,80.17Z"/><path d="M415.83,97.32a.92.92,0,0,1,.67,1.08c-.06.55-.18,1.28-.36,2.2a12.88,12.88,0,0,1-1.54,3.55,2.31,2.31,0,0,1-.8,1,8.48,8.48,0,0,1-.79,1.24,4,4,0,0,1-2.87,2.12,1.7,1.7,0,0,1-.8.22,2.43,2.43,0,0,1-1.91-.71c-.19-.15-.21-.28-.08-.4a2.83,2.83,0,0,1,.84-1.1,9,9,0,0,0,1-1,10.22,10.22,0,0,0,.68-1.24l.4-2a3.22,3.22,0,0,0-.32-2.69,2.42,2.42,0,0,1-.3-2.25,1.12,1.12,0,0,1,.11-.49,3.07,3.07,0,0,1,.57-1,2.48,2.48,0,0,1,1-.75l.77.21a4.39,4.39,0,0,1,1.88.6l.79.37S415.13,96.67,415.83,97.32Z"/></g></g></svg>